<?xml version="1.0" encoding="utf-8"?>
<svg version="1.1" xmlns="http://www.w3.org/2000/svg" xmlns:xlink="http://www.w3.org/1999/xlink" x="0px" y="0px"
     viewBox="0 0 134 134" xml:space="preserve">
  <path d="M99.6,1C86.2,1,70.4,11,60.8,27.5C58.2,21.5,49,15,38.1,15C29.2,15,4.5,26.1,4.5,61.9
	c0,46.2,46.5,55.7,55.9,70.1c0.5,0.9,1.7,1.2,2.6,0.7c0.5-0.3,0.8-0.8,0.9-1.3c7.5-22.3,65.6-47.4,65.6-92.8
	C129.5,13.3,113,1,99.6,1z M17.2,59.8c0.3-28.6,15.1-37.6,23.2-37.6c11.3,0,15.9,8.6,16.7,12.5s5,6.9,6.4,0.6S78.1,9.9,94.3,9.9
	c14.9,0,20.1,15.5,19.6,28.6c-1.2,35.8-47.1,64.4-53.1,82.5C55.4,110.1,16.8,94.3,17.2,59.8z"/>
</svg>
