<?xml version="1.0" standalone="no"?>
<!DOCTYPE svg PUBLIC "-//W3C//DTD SVG 20010904//EN"
 "http://www.w3.org/TR/2001/REC-SVG-20010904/DTD/svg10.dtd">
<svg version="1.0" xmlns="http://www.w3.org/2000/svg"
 width="537.000000pt" height="537.000000pt" viewBox="0 0 537.000000 537.000000"
 preserveAspectRatio="xMidYMid meet">
<g transform="translate(0.000000,537.000000) scale(0.100000,-0.100000)"
fill="#000000" stroke="none">
<path d="M4007 5325 c-1 -1 -49 -5 -107 -8 -62 -4 -144 -17 -200 -32 -52 -13
-102 -27 -111 -29 -146 -39 -439 -204 -608 -343 -164 -135 -367 -365 -486
-553 l-58 -90 -21 34 c-63 102 -148 190 -257 263 -114 77 -278 148 -388 168
-14 3 -35 7 -47 9 -83 17 -272 25 -292 12 -5 -3 -24 -8 -43 -11 -148 -25 -396
-150 -554 -278 -190 -155 -368 -394 -473 -634 -72 -163 -137 -393 -156 -553
-3 -19 -8 -62 -12 -95 -11 -78 -11 -468 -1 -567 34 -339 151 -672 334 -952
130 -198 273 -359 504 -562 117 -103 417 -316 676 -478 443 -278 579 -381 702
-534 33 -40 49 -52 70 -52 29 0 81 39 81 61 0 23 55 136 105 214 120 188 373
451 760 790 37 33 78 69 89 80 12 11 62 56 111 100 244 217 312 282 515 485
316 316 527 576 684 840 31 52 61 102 66 110 76 126 209 462 234 594 2 11 9
41 15 66 28 126 45 285 44 435 -1 112 -9 250 -18 295 -2 13 -7 42 -10 65 -12
78 -56 239 -91 327 -101 255 -238 439 -449 602 -93 73 -300 172 -396 190 -13
2 -35 7 -49 10 -28 7 -159 24 -163 21z"/>
</g>
</svg>
